<svg width="68" height="68" viewBox="0 0 68 68" fill="none" xmlns="http://www.w3.org/2000/svg">
<path d="M18.8562 15.085L15.085 18.8562C11.9608 21.9804 11.9608 27.0457 15.085 30.1699L22.6274 37.7124L24.513 35.8268C25.5544 34.7854 25.5544 33.0969 24.5131 32.0555L18.8562 26.3987C17.8148 25.3573 17.8148 23.6688 18.8562 22.6274L22.6275 26.3987C28.8758 32.6471 39.0065 32.6471 45.2549 26.3987L49.0261 22.6274L45.2549 18.8562L41.4836 22.6274C37.318 26.793 30.5643 26.793 26.3987 22.6274L18.8562 15.085Z" fill="url(#paint0_linear_2010_474)"/>
<path d="M52.7975 49.0262C55.9216 45.902 55.9216 40.8367 52.7974 37.7125L45.255 30.17L43.3694 32.0556C42.328 33.097 42.328 34.7855 43.3694 35.8269L49.0262 41.4837C50.0676 42.5251 50.0676 44.2135 49.0262 45.2549L45.255 41.4837C39.0066 35.2353 28.876 35.2353 22.6276 41.4837L18.8564 45.255L22.6276 49.0262L26.3988 45.255C30.5644 41.0894 37.3182 41.0894 41.4838 45.255L49.0262 52.7974L52.7975 49.0262Z" fill="url(#paint1_linear_2010_474)"/>
<defs>
<linearGradient id="paint0_linear_2010_474" x1="47.1405" y1="20.7418" x2="20.7419" y2="47.1404" gradientUnits="userSpaceOnUse">
<stop stop-color="#D4D4D8"/>
<stop offset="1" stop-color="#18181B"/>
</linearGradient>
<linearGradient id="paint1_linear_2010_474" x1="47.1406" y1="20.7419" x2="20.7419" y2="47.1405" gradientUnits="userSpaceOnUse">
<stop stop-color="#18181B"/>
<stop offset="1" stop-color="#D4D4D8"/>
</linearGradient>
</defs>
</svg>
